PathFileType	4	(X/Y/Z)	output.trc
DataRate	CameraRate	NumFrames	NumMarkers	Units	OrigDataRate	OrigDataStartFrame	OrigNumFrames
200	200	5	68	mm	200	37	295
Frame#	Time			LASI			RASI			RSACR			LSACR			USACR			LBAR			RBAR			RHEE			RMT1			RMT5			RMT2			LHEE			LMT1			LMT5			LMT2			LMMAL			LMFC			LLFC			LLMAL			LTIB4			LTIB2			LTIB3			LTIB1			RMMAL			RMFC			RLFC			RLMAL			RTIB1			RTIB2			RTIB3			RTHI1			RTHI4			RTHI3			RTHI2			LTHI1			LTHI4			LTHI3			LTHI2			FHD			LBHD			RBHD			C7			T10			CLAV			LSHO			RSHO			LRAD			LUL			LRFIN			RRAD			RUL			RUFIN			RLEP			RMEP			LLEP			LMEP			LDUPA			LMUPA			LUUPA			RDUPA			RUUPA			RMUPA			LHJC			RHJC			LKJC			RKJC			LAJC			RAJC
		X1	Y1	Z1	X2	Y2	Z2	X3	Y3	Z3	X4	Y4	Z4	X5	Y5	Z5	X6	Y6	Z6	X7	Y7	Z7	X8	Y8	Z8	X9	Y9	Z9	X10	Y10	Z10	X11	Y11	Z11	X12	Y12	Z12	X13	Y13	Z13	X14	Y14	Z14	X15	Y15	Z15	X16	Y16	Z16	X17	Y17	Z17	X18	Y18	Z18	X19	Y19	Z19	X20	Y20	Z20	X21	Y21	Z21	X22	Y22	Z22	X23	Y23	Z23	X24	Y24	Z24	X25	Y25	Z25	X26	Y26	Z26	X27	Y27	Z27	X28	Y28	Z28	X29	Y29	Z29	X30	Y30	Z30	X31	Y31	Z31	X32	Y32	Z32	X33	Y33	Z33	X34	Y34	Z34	X35	Y35	Z35	X36	Y36	Z36	X37	Y37	Z37	X38	Y38	Z38	X39	Y39	Z39	X40	Y40	Z40	X41	Y41	Z41	X42	Y42	Z42	X43	Y43	Z43	X44	Y44	Z44	X45	Y45	Z45	X46	Y46	Z46	X47	Y47	Z47	X48	Y48	Z48	X49	Y49	Z49	X50	Y50	Z50	X51	Y51	Z51	X52	Y52	Z52	X53	Y53	Z53	X54	Y54	Z54	X55	Y55	Z55	X56	Y56	Z56	X57	Y57	Z57	X58	Y58	Z58	X59	Y59	Z59	X60	Y60	Z60	X61	Y61	Z61	X62	Y62	Z62	X63	Y63	Z63	X64	Y64	Z64	X65	Y65	Z65	X66	Y66	Z66	X67	Y67	Z67	X68	Y68	Z68
36	0.180000	134.649170	918.146362	-762.318115	130.075500	918.659424	-984.601318	309.949371	950.439148	-912.643494	309.215637	953.687134	-852.746826	298.301971	966.813049	-882.595825	1270.800049	26.321119	346.503174	1226.409302	26.304098	-1876.951538	323.059998	39.812527	-1019.657898	128.150406	43.441929	-1043.321899	165.062943	34.811481	-1113.662476	140.175674	42.689041	-1079.969849	326.268250	45.802990	-745.130371	134.388641	46.334469	-736.455933	170.012024	33.381718	-662.783875	143.174347	45.916889	-698.035278	276.702698	72.943123	-778.667053	233.457855	456.927917	-829.120056	219.996735	454.043304	-721.443359	278.819153	69.133163	-700.947205	290.606995	209.609741	-691.528381	314.316895	270.874878	-691.527283	263.792816	268.186859	-684.479004	301.733582	314.207642	-687.544312	275.186737	68.349312	-994.117798	235.884171	446.594543	-935.434265	221.113174	461.400238	-1041.329712	284.697906	72.226639	-1068.613525	257.428375	319.322144	-1082.749512	307.881653	313.999817	-1077.243164	276.837280	256.170441	-1081.413696	242.388245	783.969543	-1060.131348	243.274094	635.135742	-1064.848877	192.000977	637.134949	-1066.701416	219.710831	697.258972	-1070.213989	239.582855	779.032776	-698.968323	237.422775	646.643616	-695.425720	186.827164	637.613708	-693.133667	201.343842	701.327332	-689.423950	130.620575	1593.133789	-775.233887	241.392151	1575.980103	-786.251099	252.931305	1571.433472	-909.733643	262.926178	1391.470337	-857.672913	286.293427	1007.770508	-877.687439	140.343140	1328.739136	-872.687439	244.141083	1380.915161	-724.714844	236.383224	1397.152222	-986.673340	163.898117	1357.419067	-222.566330	204.516876	1353.071777	-222.075302	150.408508	1336.880859	-130.658707	240.965164	1389.573120	-1500.542114	287.862000	1383.480835	-1499.665649	235.243103	1391.842163	-1590.703125	293.209351	1330.287354	-1271.208740	255.016327	1296.660034	-1271.746216	220.071518	1299.948975	-453.853821	179.212891	1277.534912	-466.723694	236.314407	1353.774536	-505.774414	200.448227	1371.368896	-536.359131	237.599899	1362.371460	-584.954041	266.033997	1382.736206	-1205.647095	256.718201	1384.400269	-1143.935791	215.801270	1385.666260	-1212.215332	227.815887	883.622070	-771.344421	227.471039	884.356018	-985.792053	226.727295	455.485596	-775.281738	228.498672	453.997375	-988.381958	277.760925	71.038147	-739.807129	279.942322	70.287979	-1031.365723
37	0.185000	134.634476	918.151245	-762.322083	130.056747	918.655273	-984.600525	309.930664	950.439392	-912.651184	309.194366	953.685242	-852.756592	298.274628	966.807861	-882.607178	1270.792969	26.324051	346.495667	1226.431641	26.293468	-1876.971191	323.050690	39.820206	-1019.649353	128.145172	43.447815	-1043.317993	165.060989	34.817528	-1113.668091	140.174805	42.685558	-1079.965088	326.268219	45.803581	-745.146973	134.390121	46.338425	-736.456604	169.993820	33.401546	-662.780884	143.175659	45.917782	-698.035278	276.715088	72.948654	-778.656982	233.445572	456.927338	-829.126343	219.994308	454.044556	-721.450623	278.815552	69.131874	-700.946899	290.600555	209.618576	-691.529602	314.256775	271.199066	-691.346680	263.783600	268.184296	-684.488892	301.737610	314.213928	-687.549683	275.190369	68.349915	-994.112915	235.873444	446.590820	-935.440491	221.105850	461.397003	-1041.327637	284.696442	72.229256	-1068.625732	257.429108	319.329346	-1082.758545	307.882111	314.004761	-1077.236694	276.837524	256.181854	-1081.408447	242.367218	783.969727	-1060.139648	243.271729	635.155212	-1064.855103	191.994675	637.122375	-1066.705811	219.812546	697.126404	-1070.151001	239.586777	779.040588	-698.972046	237.409805	646.662842	-695.431946	186.792465	637.602295	-693.141357	201.333481	701.320312	-689.433899	130.590363	1593.103516	-775.221924	241.339066	1575.986816	-786.241272	252.884659	1571.445557	-909.723694	262.914154	1391.475220	-857.667480	286.271851	1007.770081	-877.700195	140.323883	1328.743164	-872.685730	244.126633	1380.941284	-724.706482	236.362076	1397.153442	-986.666260	163.881165	1357.593994	-222.505737	204.490814	1353.088501	-222.084106	150.379440	1336.924438	-130.653671	240.917770	1389.615967	-1500.543091	287.827179	1383.535645	-1499.650146	235.199310	1391.892822	-1590.702637	293.184052	1330.317871	-1271.211914	254.997101	1296.688232	-1271.750732	220.069061	1299.957520	-453.855743	179.201431	1277.549194	-466.729919	236.302979	1353.782471	-505.766846	200.443329	1371.369507	-536.361023	237.577896	1362.405273	-584.947815	266.006470	1382.751953	-1205.655640	256.696533	1384.408691	-1143.931885	215.811188	1385.592529	-1212.152710	227.805206	883.625671	-771.350220	227.451538	884.354797	-985.797119	226.719940	455.485962	-775.288452	228.489655	453.993896	-988.384033	277.765320	71.040268	-739.801941	279.943420	70.289581	-1031.369385
38	0.190000	134.609207	918.154236	-762.326050	130.047501	918.651123	-984.608337	309.906372	950.447815	-912.648010	309.176880	953.691650	-852.755371	298.245087	966.809387	-882.608276	1270.797363	26.334190	346.507111	1226.424927	26.299862	-1876.966309	323.057404	39.817924	-1019.662659	128.152039	43.459202	-1043.330078	165.058502	34.821224	-1113.675781	140.174454	42.690483	-1079.967773	326.268433	45.807674	-745.142517	134.392944	46.344852	-736.455261	169.986603	33.398418	-662.778198	143.176743	45.921688	-698.034912	276.721161	72.954094	-778.657959	233.425278	456.932037	-829.138245	219.984024	454.054382	-721.459412	278.812744	69.141777	-700.951355	290.607605	209.623016	-691.528931	314.251770	271.191650	-691.346436	263.795563	268.200745	-684.485657	301.924591	314.294006	-687.354858	275.187042	68.356018	-994.102234	235.867996	446.593933	-935.436646	221.106537	461.391632	-1041.330200	284.699677	72.231766	-1068.619141	257.430725	319.332611	-1082.745483	307.873230	314.014923	-1077.234619	276.857025	256.171173	-1081.409912	242.353348	783.976013	-1060.148682	243.283844	635.147400	-1064.836304	191.973175	637.116638	-1066.682861	219.817993	697.128296	-1070.151489	239.560165	779.038208	-698.977417	237.400391	646.661194	-695.425476	186.777237	637.600281	-693.132996	201.310287	701.322876	-689.426636	130.531235	1593.101807	-775.217102	241.262924	1575.984863	-786.234558	252.832809	1571.463379	-909.718079	262.892578	1391.480957	-857.675415	286.245148	1007.771057	-877.713318	140.323792	1328.748291	-872.697327	244.123428	1380.954468	-724.709106	236.346832	1397.151123	-986.661194	163.858078	1357.630371	-222.524323	204.461807	1353.117554	-222.098282	150.363617	1336.968628	-130.671753	240.870071	1389.666260	-1500.537231	287.782440	1383.582642	-1499.641602	235.164932	1391.945923	-1590.700439	293.165955	1330.339111	-1271.197021	254.965469	1296.716675	-1271.765015	220.052048	1299.973145	-453.861877	179.187439	1277.565552	-466.726746	236.294189	1353.780884	-505.770630	200.441132	1371.376709	-536.370483	237.566635	1362.416504	-584.952332	265.980713	1382.772339	-1205.634033	256.670807	1384.418701	-1143.916748	215.777985	1385.612427	-1212.149292	227.782089	883.628052	-771.352966	227.435745	884.358337	-985.801697	226.704651	455.493225	-775.298828	228.487274	453.992798	-988.383423	277.766968	71.047935	-739.804688	279.943359	70.293892	-1031.360718
39	0.195000	134.587357	918.147949	-762.330017	130.024521	918.652893	-984.615417	309.881378	950.438660	-912.655640	309.146759	953.688477	-852.755737	298.231842	966.816895	-882.607117	1270.802368	26.336073	346.491547	1226.434692	26.292570	-1876.972046	323.051788	39.820244	-1019.670349	128.149063	43.459606	-1043.327881	165.047745	34.817547	-1113.670044	140.179672	42.685802	-1079.962891	326.274261	45.801357	-745.152344	134.386353	46.342819	-736.454773	169.974014	33.417080	-662.776123	143.170883	45.922081	-698.029480	276.715393	72.954445	-778.654236	233.413498	456.937866	-829.140381	219.963196	454.044098	-721.464478	278.824951	69.144844	-700.950745	290.600830	209.623352	-691.527283	314.291718	270.942505	-691.539063	263.782684	268.197021	-684.493958	301.917572	314.292419	-687.365417	275.189240	68.355148	-994.104431	235.850403	446.591766	-935.432983	221.086075	461.402527	-1041.335083	284.700073	72.231911	-1068.609741	257.418091	319.326874	-1082.757935	307.874054	314.014648	-1077.234009	276.849701	256.175110	-1081.418335	242.335571	783.975586	-1060.155029	243.257233	635.152710	-1064.864502	191.969574	637.117126	-1066.682861	219.776291	697.130554	-1070.171753	239.540894	779.041077	-698.974365	237.407700	646.669617	-695.439148	186.755524	637.604980	-693.127625	201.310043	701.318970	-689.447266	130.486954	1593.093628	-775.208313	241.213821	1575.992798	-786.234131	252.782913	1571.473877	-909.707336	262.869843	1391.479370	-857.669250	286.224884	1007.772095	-877.718018	140.318817	1328.738647	-872.689636	244.136093	1380.979858	-724.703186	236.321503	1397.152222	-986.661316	163.837936	1357.675049	-222.536316	204.470016	1353.165039	-222.093369	150.347809	1337.027222	-130.667450	240.832123	1389.717163	-1500.537598	287.739044	1383.632568	-1499.624756	235.125244	1391.990601	-1590.695801	293.154510	1330.372314	-1271.210571	254.940384	1296.736572	-1271.766479	220.041428	1299.978271	-453.856567	179.184784	1277.579346	-466.725983	236.284637	1353.778687	-505.779083	200.403885	1371.392334	-536.378174	237.629318	1362.387939	-584.918701	265.960358	1382.782104	-1205.634155	256.656403	1384.421753	-1143.917114	215.718323	1385.724121	-1212.205811	227.758331	883.625854	-771.353394	227.413818	884.355713	-985.808716	226.688354	455.490967	-775.302429	228.468231	453.997131	-988.384033	277.770172	71.049644	-739.802490	279.944641	70.293533	-1031.357056
40	0.200000	134.561874	918.150879	-762.326599	130.016312	918.652283	-984.619263	309.860626	950.450562	-912.660583	309.122589	953.696716	-852.757202	298.205017	966.810364	-882.604858	1270.752441	26.282074	346.518372	1226.426636	26.288080	-1876.962280	323.060455	39.824131	-1019.655579	128.159805	43.460033	-1043.316406	165.063797	34.808632	-1113.659912	140.171753	42.691383	-1079.968384	326.267456	45.812828	-745.140747	134.387375	46.347469	-736.451721	169.973175	33.413189	-662.771912	143.169220	45.923519	-698.028320	276.711487	72.959084	-778.664734	233.401184	456.930756	-829.139526	219.951035	454.054504	-721.472961	278.819336	69.140053	-700.955139	290.594818	209.632645	-691.521057	314.291656	270.949921	-691.546509	263.767609	268.208679	-684.494324	301.911377	314.300842	-687.357605	275.188232	68.361328	-994.106995	235.858139	446.589539	-935.429077	221.079727	461.397003	-1041.336792	284.694458	72.230423	-1068.616211	257.427704	319.331116	-1082.753662	307.865082	314.026031	-1077.233887	276.843445	256.177979	-1081.410645	242.324097	783.977234	-1060.161011	243.253891	635.158630	-1064.860718	191.958252	637.126282	-1066.722168	219.780746	697.148499	-1070.166992	239.522278	779.057495	-698.983215	237.379227	646.676086	-695.434814	186.742798	637.605896	-693.143616	201.287735	701.319580	-689.434692	130.437088	1593.079712	-775.204590	241.169403	1576.002075	-786.225098	252.737900	1571.497437	-909.702271	262.858032	1391.478027	-857.683533	286.208435	1007.777344	-877.715210	140.314255	1328.731567	-872.677490	244.133820	1380.959717	-724.718201	236.315140	1397.157593	-986.662109	163.828720	1357.709473	-222.557343	204.443024	1353.188721	-222.110275	150.331345	1337.071533	-130.680145	240.801300	1389.764648	-1500.528564	287.707520	1383.676147	-1499.627808	235.089767	1392.063232	-1590.696289	293.123505	1330.390381	-1271.198975	254.924301	1296.753540	-1271.769775	220.037552	1299.987061	-453.856995	179.173492	1277.591675	-466.724854	236.284622	1353.790649	-505.774475	200.437897	1371.389038	-536.367188	237.575134	1362.446533	-584.945740	265.953705	1382.790649	-1205.636597	256.650360	1384.427734	-1143.901978	215.750717	1385.657349	-1212.140015	227.735580	883.635010	-771.355652	227.400345	884.360046	-985.813599	226.676117	455.492615	-775.306274	228.468933	453.993286	-988.382935	277.765411	71.049568	-739.809937	279.941345	70.295876	-1031.361572
